<svg width="483" height="584" viewBox="0 0 483 584" fill="none" xmlns="http://www.w3.org/2000/svg">
<path d="M448.695 411H164.305C163.429 410.998 162.589 410.469 161.969 409.528C161.35 408.588 161.001 407.312 161 405.982V5.01831C161.001 3.68791 161.35 2.41248 161.969 1.47175C162.589 0.531012 163.429 0.00173917 164.305 0H448.695C449.571 0.00173917 450.411 0.531012 451.031 1.47175C451.65 2.41248 451.999 3.68791 452 5.01831V405.981C451.999 407.311 451.65 408.587 451.031 409.528C450.411 410.468 449.571 410.999 448.695 411Z" fill="white"/>
<path d="M448.695 411H164.305C163.429 410.998 162.589 410.469 161.969 409.528C161.35 408.588 161.001 407.312 161 405.982V5.01831C161.001 3.68791 161.35 2.41248 161.969 1.47175C162.589 0.531012 163.429 0.00173917 164.305 0H448.695C449.571 0.00173917 450.411 0.531012 451.031 1.47175C451.65 2.41248 451.999 3.68791 452 5.01831V405.981C451.999 407.311 451.65 408.587 451.031 409.528C450.411 410.468 449.571 410.999 448.695 411ZM164.305 2.00337C163.78 2.0051 163.277 2.32261 162.906 2.88641C162.534 3.45021 162.325 4.21439 162.324 5.01172V405.981C162.325 406.778 162.534 407.542 162.906 408.106C163.277 408.67 163.78 408.987 164.305 408.989H448.695C449.22 408.988 449.723 408.67 450.095 408.106C450.466 407.542 450.675 406.778 450.676 405.981V5.01831C450.675 4.22098 450.466 3.4568 450.094 2.893C449.723 2.3292 449.22 2.01169 448.695 2.00995L164.305 2.00337Z" fill="#CACACA"/>
<path d="M345.36 125C344.734 125.002 344.133 125.372 343.691 126.028C343.249 126.684 343 127.573 343 128.5C343 129.427 343.249 130.316 343.691 130.972C344.133 131.628 344.734 131.998 345.36 132H411.64C412.266 131.998 412.867 131.628 413.309 130.972C413.751 130.316 414 129.427 414 128.5C414 127.573 413.751 126.684 413.309 126.028C412.867 125.372 412.266 125.002 411.64 125H345.36Z" fill="#E4E4E4"/>
<path d="M345.36 100C344.734 100.002 344.133 100.372 343.691 101.028C343.249 101.684 343 102.573 343 103.5C343 104.427 343.249 105.316 343.691 105.972C344.133 106.628 344.734 106.998 345.36 107H411.64C412.266 106.998 412.867 106.628 413.309 105.972C413.751 105.316 414 104.427 414 103.5C414 102.573 413.751 101.684 413.309 101.028C412.867 100.372 412.266 100.002 411.64 100H345.36Z" fill="#E4E4E4"/>
<path d="M204.779 235C204.307 235.002 203.854 235.372 203.521 236.028C203.187 236.684 203 237.573 203 238.5C203 239.427 203.187 240.316 203.521 240.972C203.854 241.628 204.307 241.998 204.779 242H388.221C388.693 241.998 389.146 241.628 389.479 240.972C389.813 240.316 390 239.427 390 238.5C390 237.573 389.813 236.684 389.479 236.028C389.146 235.372 388.693 235.002 388.221 235H204.779Z" fill="#E4E4E4"/>
<path d="M204.777 255C204.305 255.002 203.853 255.372 203.52 256.028C203.187 256.684 203 257.573 203 258.5C203 259.427 203.187 260.316 203.52 260.972C203.853 261.628 204.305 261.998 204.777 262H340.223C340.695 261.998 341.147 261.628 341.48 260.972C341.813 260.316 342 259.427 342 258.5C342 257.573 341.813 256.684 341.48 256.028C341.147 255.372 340.695 255.002 340.223 255H204.777Z" fill="#E4E4E4"/>
<path d="M204.779 275C204.307 275.002 203.854 275.372 203.521 276.028C203.187 276.684 203 277.573 203 278.5C203 279.427 203.187 280.316 203.521 280.972C203.854 281.628 204.307 281.998 204.779 282H388.221C388.693 281.998 389.146 281.628 389.479 280.972C389.813 280.316 390 279.427 390 278.5C390 277.573 389.813 276.684 389.479 276.028C389.146 275.372 388.693 275.002 388.221 275H204.779Z" fill="#E4E4E4"/>
<path d="M204.777 296C204.305 296.002 203.853 296.372 203.52 297.028C203.187 297.684 203 298.573 203 299.5C203 300.427 203.187 301.316 203.52 301.972C203.853 302.628 204.305 302.998 204.777 303H340.223C340.695 302.998 341.147 302.628 341.48 301.972C341.813 301.316 342 300.427 342 299.5C342 298.573 341.813 297.684 341.48 297.028C341.147 296.372 340.695 296.002 340.223 296H204.777Z" fill="#E4E4E4"/>
<path d="M204.779 316C204.307 316.002 203.854 316.372 203.521 317.028C203.187 317.684 203 318.573 203 319.5C203 320.427 203.187 321.316 203.521 321.972C203.854 322.628 204.307 322.998 204.779 323H388.221C388.693 322.998 389.146 322.628 389.479 321.972C389.813 321.316 390 320.427 390 319.5C390 318.573 389.813 317.684 389.479 317.028C389.146 316.372 388.693 316.002 388.221 316H204.779Z" fill="#E4E4E4"/>
<path d="M204.777 337C204.305 337.002 203.853 337.372 203.52 338.028C203.187 338.684 203 339.573 203 340.5C203 341.427 203.187 342.316 203.52 342.972C203.853 343.628 204.305 343.998 204.777 344H340.223C340.695 343.998 341.147 343.628 341.48 342.972C341.813 342.316 342 341.427 342 340.5C342 339.573 341.813 338.684 341.48 338.028C341.147 337.372 340.695 337.002 340.223 337H204.777Z" fill="#E4E4E4"/>
<path d="M261.839 166.944C252.147 166.944 242.674 164.071 234.616 158.687C226.558 153.302 220.277 145.65 216.568 136.696C212.86 127.743 211.889 117.89 213.78 108.385C215.67 98.8801 220.337 90.1491 227.19 83.2963C234.043 76.4435 242.774 71.7766 252.279 69.8859C261.784 67.9952 271.636 68.9655 280.59 72.6742C289.543 76.3829 297.196 82.6633 302.58 90.7214C307.964 98.7794 310.838 108.253 310.838 117.944C310.824 130.935 305.656 143.39 296.47 152.576C287.284 161.762 274.83 166.929 261.839 166.944Z" fill="#00875A"/>
<path d="M113.098 352.216C113.013 350.428 112.537 348.68 111.704 347.095C110.87 345.51 109.699 344.128 108.274 343.044C106.848 341.961 105.202 341.203 103.452 340.825C101.702 340.447 99.8904 340.456 98.1446 340.854L81.9482 318.029L65.6768 324.488L89.002 356.401C89.8642 359.289 91.7561 361.761 94.3191 363.348C96.8821 364.935 99.9382 365.527 102.908 365.011C105.878 364.495 108.556 362.908 110.434 360.55C112.312 358.192 113.26 355.226 113.098 352.216Z" fill="#A0616A"/>
<path d="M81.5314 350.525L32.5237 286.947L50.8864 229.236C52.2321 214.727 61.3115 210.675 61.6978 210.51L62.2871 210.257L78.2661 252.869L66.5338 284.155L95.3305 332.587L81.5314 350.525Z" fill="#3F3D56"/>
<path d="M251.727 154.536C249.951 154.759 248.244 155.368 246.729 156.322C245.213 157.275 243.925 158.55 242.956 160.055C241.986 161.56 241.358 163.259 241.116 165.033C240.874 166.807 241.024 168.613 241.555 170.323L220.05 188.235L227.749 203.959L257.762 178.236C260.575 177.153 262.894 175.076 264.278 172.398C265.662 169.72 266.015 166.627 265.271 163.706C264.528 160.784 262.738 158.237 260.242 156.547C257.745 154.857 254.716 154.142 251.727 154.536Z" fill="#A0616A"/>
<path d="M252.481 186.138L192.883 239.915L133.925 226.069C119.355 225.85 114.614 217.111 114.419 216.738L114.121 216.17L155.37 196.944L187.47 206.223L233.53 173.768L252.481 186.138Z" fill="#3F3D56"/>
<path d="M149.248 568.437L165.261 568.436L172.878 506.672L149.245 506.673L149.248 568.437Z" fill="#A0616A"/>
<path d="M196.143 583.304L145.817 583.306L145.816 563.862L182.023 563.86C185.768 563.86 189.359 565.347 192.007 567.995C194.655 570.643 196.143 574.234 196.143 577.979L196.143 583.304Z" fill="#2F2E41"/>
<path d="M85.247 568.437L101.26 568.436L108.878 506.672L85.245 506.673L85.247 568.437Z" fill="#A0616A"/>
<path d="M132.143 583.304L81.8166 583.306L81.8157 563.862L118.023 563.86C119.877 563.86 121.713 564.225 123.426 564.935C125.139 565.644 126.695 566.684 128.007 567.995C129.318 569.306 130.358 570.863 131.067 572.576C131.777 574.289 132.142 576.124 132.142 577.979L132.143 583.304Z" fill="#2F2E41"/>
<path d="M79.552 342.991L80.858 434.42L82.165 554.584L110.899 551.972L125.267 386.094L143.553 551.972H173.218L176.206 384.788L165.757 348.216L79.552 342.991Z" fill="#2F2E41"/>
<path d="M135.793 355.269C104.528 355.272 75.7487 341.121 75.3603 340.927L75.0375 340.765L72.4138 277.799C71.653 275.574 56.6711 231.668 54.1338 217.713C51.5629 203.574 88.8222 191.165 93.3468 189.714L94.3736 178.34L136.127 173.841L141.419 188.394L156.399 194.011C158.097 194.649 159.502 195.887 160.349 197.491C161.195 199.095 161.423 200.954 160.991 202.716L152.665 236.572L172.999 348.584L168.621 348.774C158.128 353.513 146.804 355.269 135.793 355.269Z" fill="#3F3D56"/>
<path d="M131.305 162.953C145.873 154.989 151.227 136.723 143.263 122.154C135.299 107.585 117.033 102.231 102.465 110.195C87.8962 118.159 82.5421 136.425 90.5061 150.994C98.47 165.562 116.736 170.916 131.305 162.953Z" fill="#A0616A"/>
<path d="M92.5359 165.677C98.2652 171.78 108.905 168.504 109.652 160.167C109.71 159.519 109.706 158.868 109.639 158.221C109.254 154.528 107.12 151.175 107.631 147.276C107.747 146.306 108.108 145.381 108.681 144.589C113.247 138.475 123.964 147.323 128.273 141.789C130.915 138.395 127.809 133.052 129.837 129.259C132.513 124.253 140.439 126.723 145.409 123.981C150.939 120.931 150.608 112.446 146.968 107.285C142.528 100.991 134.744 97.6329 127.058 97.1488C119.371 96.6648 111.737 98.7428 104.56 101.54C96.4062 104.717 88.3204 109.109 83.3026 116.279C77.2005 124.998 76.6132 136.72 79.665 146.915C81.5215 153.117 87.8574 160.694 92.5359 165.677Z" fill="#2F2E41"/>
<path d="M259.009 136.452C258.125 136.453 257.274 136.118 256.628 135.516L240.471 120.509C239.792 119.877 239.391 119.001 239.357 118.074C239.324 117.147 239.659 116.244 240.291 115.565C240.922 114.885 241.797 114.484 242.724 114.449C243.651 114.414 244.554 114.749 245.234 115.38L258.92 128.092L285.996 101.015C286.321 100.688 286.707 100.429 287.132 100.251C287.557 100.074 288.013 99.9818 288.474 99.981C288.935 99.9801 289.391 100.07 289.817 100.246C290.243 100.422 290.63 100.68 290.956 101.006C291.282 101.332 291.54 101.719 291.716 102.145C291.892 102.571 291.982 103.027 291.981 103.488C291.98 103.949 291.888 104.405 291.71 104.83C291.533 105.255 291.273 105.641 290.946 105.966L261.485 135.427C261.16 135.752 260.774 136.01 260.349 136.186C259.924 136.362 259.469 136.452 259.009 136.452Z" fill="white"/>
</svg>
