<?xml version="1.0" encoding="UTF-8"?>
<svg id="Layer_1" xmlns="http://www.w3.org/2000/svg" viewBox="0 0 24 24">
    <defs>
        <style>.cls-1 {
            fill: #00875A;
        }

        .cls-1, .cls-2, .cls-3, .cls-4 {
            stroke-width: 0px;
        }

        .cls-2 {
            fill: #a4cffc;
        }

        .cls-3 {
            fill: #fff;
        }

        .cls-4 {
            fill: #001549;
        }</style>
    </defs>
    <rect class="cls-1" x="3" y="4.85" width="18" height="18" rx="2" ry="2"/>
    <rect class="cls-4" x="7.69" y="6.97" width="8.62" height="2.04" rx="1" ry="1"/>
    <path class="cls-3"
          d="m8.21,13.17s-.86,3.07-3.21,3.18c0,0,2.83.45,3.21,2.97,0,0,.28-3.07,2.86-3.07,0,0-2.11.21-2.86-3.07Z"/>
    <path class="cls-3"
          d="m13.44,12.17s-.43,1.54-1.6,1.59c0,0,1.42.22,1.6,1.48,0,0,.14-1.54,1.43-1.54,0,0-1.05.1-1.43-1.54Z"/>
    <path class="cls-3"
          d="m16.15,16.87s-.56,1.98-2.07,2.05c0,0,1.82.29,2.07,1.91,0,0,.18-1.98,1.85-1.98,0,0-1.36.13-1.85-1.98Z"/>
    <path class="cls-2"
          d="m10.43,9.26l-2.17-2.17c-.31-.31-.47-.7-.46-1.16,0-.45.17-.84.48-1.15l3.39-3.39c.31-.31.7-.48,1.15-.49h0c.49,0,.87.15,1.17.45l2.44,2.44c.31.31.47.69.49,1.14.01.45-.14.84-.45,1.15l-3.17,3.18h-2.86Z"/>
    <path class="cls-1"
          d="m12.87,1.15c.37,0,.68.13.94.38l2.44,2.44c.27.27.4.59.42.97.01.38-.12.7-.38.97l-3.1,3.1h-2.65l-2.1-2.1c-.27-.27-.4-.59-.39-.98,0-.39.14-.71.41-.98l3.39-3.39c.27-.27.59-.4.99-.42.02,0,.03,0,.05,0m0-.5h-.06c-.52.02-.97.21-1.32.56l-3.39,3.39c-.36.36-.55.8-.55,1.32,0,.52.17.98.54,1.34l2.1,2.1.15.15h3.07l.15-.15,3.1-3.1c.36-.36.54-.82.53-1.34-.02-.51-.2-.95-.56-1.31l-2.44-2.44c-.35-.35-.78-.53-1.29-.53h0Z"/>
</svg>
