<svg width="32" height="32" viewBox="0 0 32 32" fill="none" xmlns="http://www.w3.org/2000/svg">
    <rect x="3" y="3" width="26" height="26" rx="8" fill="#0E0F0C"/>
    <path d="M16 6.5C21.2467 6.5 25.5 10.7533 25.5 16C25.5 21.2467 21.2467 25.5 16 25.5C10.7533 25.5 6.5 21.2467 6.5 16C6.5 10.7533 10.7533 6.5 16 6.5Z" fill="#00875A"/>
    <path d="M10.25 15.85L14.35 19.95L22.25 12.05" stroke="#FFFFFF" stroke-width="3.2" stroke-linecap="round" stroke-linejoin="round"/>
    <path d="M21.75 7.75C23.683 7.75 25.25 6.183 25.25 4.25C25.25 6.183 26.817 7.75 28.75 7.75C26.817 7.75 25.25 9.317 25.25 11.25C25.25 9.317 23.683 7.75 21.75 7.75Z" fill="#A4CFFC"/>
    <path d="M7.5 24.5C7.5 23.1193 6.38071 22 5 22C6.38071 22 7.5 20.8807 7.5 19.5C7.5 20.8807 8.61929 22 10 22C8.61929 22 7.5 23.1193 7.5 24.5Z" fill="#CDFFAD"/>
</svg>
