<svg width="606" height="478" viewBox="0 0 606 478" fill="none" xmlns="http://www.w3.org/2000/svg">
<g clip-path="url(#clip0_626_1301)">
<path d="M708.224 435.206H67.3853C63.0108 435.201 58.8168 433.461 55.7235 430.367C52.6302 427.274 50.8903 423.08 50.8853 418.706V23.5518C50.8889 20.3469 52.1636 17.2743 54.4297 15.0081C56.6958 12.7419 59.7683 11.4671 62.9732 11.4634H712.427C715.687 11.4671 718.813 12.7639 721.118 15.0693C723.423 17.3747 724.72 20.5004 724.724 23.7607V418.706C724.719 423.08 722.979 427.274 719.886 430.367C716.792 433.461 712.598 435.201 708.224 435.206Z" fill="#DFE6F7"/>
<path d="M687.504 414.373H90.2592C81.5042 414.373 74.3817 407.703 74.3817 399.505V55.4001C74.3817 49.32 79.6597 44.3732 86.1473 44.3732H691.421C698.016 44.3732 703.382 49.4015 703.382 55.5817V399.505C703.382 407.703 696.259 414.373 687.504 414.373Z" fill="white"/>
<path d="M724.494 25.6079H50.6537V17.2075C50.6601 12.8184 52.4072 8.61103 55.5117 5.50842C58.6163 2.40581 62.8247 0.661341 67.2138 0.657715H707.934C712.323 0.66132 716.532 2.40579 719.636 5.50841C722.741 8.61102 724.488 12.8184 724.494 17.2075V25.6079Z" fill="#3F3D56"/>
<path d="M80.7491 17.4411C83.1148 17.4411 85.0325 15.5234 85.0325 13.1577C85.0325 10.7921 83.1148 8.8743 80.7491 8.8743C78.3834 8.8743 76.4657 10.7921 76.4657 13.1577C76.4657 15.5234 78.3834 17.4411 80.7491 17.4411Z" fill="white"/>
<path d="M97.0079 17.4411C99.3736 17.4411 101.291 15.5234 101.291 13.1577C101.291 10.7921 99.3736 8.8743 97.0079 8.8743C94.6422 8.8743 92.7245 10.7921 92.7245 13.1577C92.7245 15.5234 94.6422 17.4411 97.0079 17.4411Z" fill="white"/>
<path d="M113.267 17.4411C115.632 17.4411 117.55 15.5234 117.55 13.1577C117.55 10.7921 115.632 8.8743 113.267 8.8743C110.901 8.8743 108.983 10.7921 108.983 13.1577C108.983 15.5234 110.901 17.4411 113.267 17.4411Z" fill="white"/>
<path d="M557.325 137.039H274.352C263.023 137.039 253.839 146.224 253.839 157.553V157.553C253.839 168.883 263.023 178.067 274.352 178.067H557.325C568.654 178.067 577.839 168.883 577.839 157.553C577.839 146.224 568.654 137.039 557.325 137.039Z" fill="#E6E6E6"/>
<path d="M557.325 204.928H274.352C263.023 204.928 253.839 214.112 253.839 225.442V225.442C253.839 236.771 263.023 245.956 274.352 245.956H557.325C568.654 245.956 577.839 236.771 577.839 225.442C577.839 214.112 568.654 204.928 557.325 204.928Z" fill="#E6E6E6"/>
<path d="M557.325 272.817H274.352C263.023 272.817 253.839 282.001 253.839 293.331V293.331C253.839 304.66 263.023 313.844 274.352 313.844H557.325C568.654 313.844 577.839 304.66 577.839 293.331C577.839 282.001 568.654 272.817 557.325 272.817Z" fill="#E6E6E6"/>
<path d="M217.839 246.442C229.437 246.442 238.839 237.04 238.839 225.442C238.839 213.844 229.437 204.442 217.839 204.442C206.241 204.442 196.839 213.844 196.839 225.442C196.839 237.04 206.241 246.442 217.839 246.442Z" fill="#E6E6E6"/>
<path d="M225.337 223.996L218.96 217.137C218.817 216.983 218.643 216.861 218.451 216.776C218.258 216.692 218.05 216.649 217.839 216.649C217.629 216.649 217.421 216.692 217.228 216.776C217.035 216.86 216.862 216.983 216.718 217.137L210.341 223.996C210.251 224.092 210.182 224.205 210.136 224.328C210.09 224.451 210.069 224.582 210.074 224.713C210.079 224.845 210.109 224.974 210.164 225.093C210.219 225.213 210.296 225.32 210.392 225.41C210.489 225.499 210.602 225.569 210.725 225.615C210.848 225.661 210.979 225.682 211.11 225.677C211.242 225.672 211.371 225.642 211.49 225.587C211.61 225.532 211.717 225.455 211.807 225.358L216.838 219.946V233.235C216.838 233.5 216.943 233.754 217.13 233.942C217.318 234.129 217.572 234.235 217.838 234.235C218.103 234.235 218.357 234.129 218.545 233.942C218.732 233.754 218.838 233.5 218.838 233.235V219.942L223.87 225.358C224.051 225.552 224.301 225.666 224.566 225.675C224.831 225.685 225.089 225.588 225.283 225.408C225.477 225.228 225.592 224.978 225.602 224.713C225.612 224.448 225.516 224.19 225.337 223.996Z" fill="white"/>
<path d="M217.839 314.331C229.437 314.331 238.839 304.929 238.839 293.331C238.839 281.733 229.437 272.331 217.839 272.331C206.241 272.331 196.839 281.733 196.839 293.331C196.839 304.929 206.241 314.331 217.839 314.331Z" fill="#E6E6E6"/>
<path d="M225.337 291.884L218.96 285.026C218.817 284.872 218.643 284.749 218.451 284.665C218.258 284.581 218.05 284.538 217.839 284.538C217.629 284.538 217.421 284.581 217.228 284.665C217.035 284.749 216.862 284.872 216.718 285.026L210.341 291.884C210.251 291.981 210.181 292.094 210.135 292.217C210.089 292.34 210.068 292.471 210.072 292.603C210.077 292.734 210.108 292.863 210.162 292.983C210.217 293.103 210.295 293.21 210.391 293.3C210.488 293.39 210.601 293.459 210.724 293.505C210.847 293.551 210.978 293.572 211.11 293.567C211.241 293.562 211.371 293.532 211.49 293.477C211.61 293.422 211.717 293.344 211.807 293.247L216.838 287.835V301.124C216.838 301.389 216.943 301.643 217.13 301.831C217.318 302.018 217.572 302.124 217.838 302.124C218.103 302.124 218.357 302.018 218.545 301.831C218.732 301.643 218.838 301.389 218.838 301.124V287.831L223.87 293.247C224.051 293.441 224.301 293.555 224.566 293.564C224.831 293.573 225.089 293.477 225.283 293.297C225.477 293.117 225.592 292.867 225.602 292.602C225.612 292.337 225.516 292.079 225.337 291.884Z" fill="white"/>
<path d="M217.839 178.553C229.437 178.553 238.839 169.151 238.839 157.553C238.839 145.955 229.437 136.553 217.839 136.553C206.241 136.553 196.839 145.955 196.839 157.553C196.839 169.151 206.241 178.553 217.839 178.553Z" fill="#1D63FF"/>
<path d="M225.337 156.107L218.96 149.249C218.817 149.095 218.643 148.972 218.451 148.888C218.258 148.804 218.05 148.76 217.839 148.76C217.629 148.76 217.421 148.804 217.228 148.888C217.035 148.972 216.862 149.094 216.718 149.248L210.341 156.107C210.251 156.203 210.181 156.316 210.135 156.439C210.089 156.562 210.068 156.694 210.072 156.825C210.077 156.957 210.108 157.086 210.162 157.205C210.217 157.325 210.295 157.433 210.391 157.522C210.488 157.612 210.601 157.682 210.724 157.728C210.847 157.773 210.978 157.795 211.11 157.79C211.241 157.785 211.371 157.754 211.49 157.699C211.61 157.644 211.717 157.566 211.807 157.47L216.838 152.058V165.346C216.838 165.611 216.943 165.866 217.13 166.053C217.318 166.241 217.572 166.346 217.838 166.346C218.103 166.346 218.357 166.241 218.545 166.053C218.732 165.866 218.838 165.611 218.838 165.346V152.054L223.87 157.469C224.051 157.663 224.301 157.777 224.566 157.786C224.831 157.796 225.089 157.7 225.283 157.519C225.477 157.339 225.592 157.089 225.602 156.824C225.612 156.559 225.516 156.301 225.337 156.107Z" fill="white"/>
<path d="M198.147 156.992C196.683 156.851 195.207 157.033 193.821 157.525C192.436 158.016 191.175 158.805 190.128 159.837C189.08 160.869 188.272 162.117 187.759 163.495C187.246 164.873 187.042 166.346 187.16 167.811L154.453 182.206L170.055 192.277L198.722 177.064C201.171 176.702 203.401 175.454 204.991 173.557C206.581 171.661 207.421 169.246 207.35 166.772C207.279 164.298 206.303 161.936 204.606 160.134C202.91 158.331 200.612 157.213 198.147 156.992Z" fill="#A0616A"/>
<path d="M66.2151 139.035C79.7798 139.035 90.7762 128.039 90.7762 114.474C90.7762 100.91 79.7798 89.9133 66.2151 89.9133C52.6505 89.9133 41.6541 100.91 41.6541 114.474C41.6541 128.039 52.6505 139.035 66.2151 139.035Z" fill="#A0616A"/>
<path d="M110.667 464.689L122.927 464.688L128.759 417.4L110.665 417.401L110.667 464.689Z" fill="#A0616A"/>
<path d="M107.54 460.686L131.684 460.685H131.685C133.705 460.685 135.706 461.083 137.573 461.856C139.44 462.629 141.136 463.762 142.565 465.191C143.993 466.62 145.127 468.316 145.9 470.183C146.673 472.05 147.071 474.05 147.071 476.071V476.571L107.541 476.572L107.54 460.686Z" fill="#2F2E41"/>
<path d="M59.667 464.689L71.927 464.688L77.759 417.4L59.665 417.401L59.667 464.689Z" fill="#A0616A"/>
<path d="M56.5398 460.686L80.6836 460.685H80.6846C82.7052 460.685 84.706 461.083 86.5728 461.856C88.4396 462.629 90.1357 463.762 91.5645 465.191C92.9933 466.62 94.1267 468.316 94.8999 470.183C95.6731 472.05 96.0711 474.05 96.071 476.071V476.571L56.5405 476.572L56.5398 460.686Z" fill="#2F2E41"/>
<path d="M57.2719 453.492C56.7948 453.071 56.4123 452.554 56.1496 451.975C55.8868 451.396 55.7498 450.767 55.7475 450.131L55.1706 272.93L119.193 270.462L119.663 270.445L130.192 376.737L131.511 444.451C131.537 445.569 131.143 446.656 130.408 447.499C129.673 448.342 128.649 448.88 127.538 449.007L111.998 450.836C111.381 450.909 110.756 450.854 110.162 450.673C109.568 450.493 109.018 450.192 108.547 449.788C108.075 449.385 107.692 448.888 107.421 448.329C107.151 447.77 106.999 447.162 106.975 446.542L104.208 374.605L90.7741 329.821C90.6328 329.517 90.3941 329.27 90.096 329.118C89.798 328.966 89.4576 328.918 89.1291 328.982C88.8006 329.045 88.5028 329.217 88.2831 329.469C88.0634 329.722 87.9344 330.04 87.9167 330.375L82.6872 448.138C82.6342 449.196 82.2095 450.201 81.4878 450.976C80.7661 451.75 79.794 452.246 78.7428 452.374L60.797 454.583C60.1657 454.661 59.5249 454.604 58.9172 454.416C58.3095 454.228 57.7486 453.913 57.2719 453.492Z" fill="#2F2E41"/>
<path d="M53.2267 279.219L34.2587 202.19C28.3483 178.188 41.8498 154.021 64.3559 148.318C69.6367 146.969 75.1449 146.767 80.5105 147.724C85.876 148.68 90.9747 150.774 95.464 153.865C100.568 157.395 104.869 161.963 108.088 167.268C111.307 172.574 113.371 178.499 114.144 184.657L126.534 275.848C126.62 276.475 126.572 277.112 126.394 277.719C126.216 278.325 125.913 278.888 125.503 279.37C125.094 279.851 124.587 280.241 124.017 280.514C123.447 280.787 122.825 280.936 122.193 280.953L57.7143 282.642C57.675 282.643 57.6359 282.643 57.5968 282.643C56.5917 282.639 55.6165 282.3 54.8252 281.68C54.034 281.06 53.4716 280.194 53.2267 279.219Z" fill="#1D63FF"/>
<path d="M132.688 208.055L84.5995 184.698C82.5885 183.721 80.8022 182.337 79.3535 180.635C77.9048 178.932 76.8253 176.947 76.1833 174.805C75.5414 172.664 75.3509 170.412 75.624 168.193C75.8971 165.974 76.6278 163.836 77.7698 161.914C78.9119 159.992 80.4404 158.328 82.2587 157.028C84.0771 155.727 86.1456 154.818 88.3334 154.358C90.5213 153.898 92.7808 153.897 94.969 154.355C97.1572 154.813 99.2264 155.721 101.046 157.02L139.954 184.806L181.956 168.081C182.792 167.745 183.71 167.67 184.59 167.864C185.469 168.058 186.27 168.512 186.888 169.167L192.552 175.148C193.005 175.626 193.347 176.197 193.555 176.822C193.763 177.446 193.831 178.109 193.755 178.763C193.679 179.417 193.46 180.046 193.114 180.606C192.769 181.166 192.304 181.643 191.754 182.004L154.151 206.674C150.995 208.733 147.361 209.942 143.601 210.184C139.84 210.426 136.081 209.693 132.688 208.055Z" fill="#1D63FF"/>
<path d="M56.7164 137.494C54.7882 137.532 52.876 137.137 51.1205 136.338C50.3372 135.994 49.5242 135.711 48.7424 135.366C41.838 132.321 37.2898 123.927 37.1269 115.479C37.1069 111.361 37.9265 107.281 39.5358 103.49C41.145 99.6992 43.5101 96.2759 46.4867 93.4295C52.1052 88.2597 59.3123 85.1504 66.9282 84.6105C74.8782 83.9195 83.83 86.2209 88.2724 93.7787C88.9476 94.7762 89.412 95.9011 89.637 97.0844C89.8621 98.2678 89.8431 99.4846 89.5812 100.66C89.3815 101.375 89.0081 102.03 88.4942 102.566C86.5103 104.581 84.5325 103.066 82.5101 102.932C79.7303 102.748 77.2336 105.317 76.3362 108.326C75.4389 111.335 75.8339 114.647 76.5584 117.716L76.5718 117.774C76.7357 118.49 76.7443 119.233 76.5971 119.953C76.4498 120.673 76.1502 121.354 75.7182 121.948C75.2862 122.543 74.732 123.038 74.0927 123.401C73.4534 123.763 72.7438 123.985 72.0118 124.051C68.9545 124.326 65.596 124.498 64.6373 124.048C62.7599 123.168 60.2376 123.363 59.1449 125.316C58.7942 126.037 58.5599 126.81 58.4505 127.604C57.4709 132.699 57.696 132.399 56.7164 137.494Z" fill="#2F2E41"/>
<path d="M49.7701 320.096C50.6478 318.916 51.2563 317.559 51.5526 316.119C51.849 314.679 51.826 313.192 51.4853 311.762C51.1446 310.332 50.4945 308.994 49.5808 307.842C48.6671 306.69 47.512 305.753 46.1968 305.096L50.8032 269.659L34.1124 277.799L32.297 310.202C31.3398 312.485 31.2532 315.039 32.0535 317.381C32.8538 319.723 34.4854 321.691 36.6392 322.91C38.793 324.13 41.3193 324.517 43.7394 323.998C46.1595 323.479 48.3053 322.091 49.7701 320.096Z" fill="#A0616A"/>
<path d="M51.6858 298.508C51.3818 298.614 51.0676 298.688 50.7483 298.728L33.9029 300.858C33.2689 300.938 32.6252 300.882 32.0145 300.694C31.4038 300.506 30.8401 300.19 30.361 299.768C29.8819 299.345 29.4983 298.825 29.2358 298.242C28.9733 297.659 28.8379 297.028 28.8386 296.389L28.9716 178.767C28.9912 175.363 30.2278 172.077 32.4579 169.505C34.6879 166.932 37.7645 165.242 41.1317 164.74C43.2594 164.433 45.429 164.614 47.4767 165.268C49.5244 165.922 51.3967 167.033 52.9521 168.517C54.5076 170.001 55.7055 171.819 56.4555 173.833C57.2055 175.848 57.4879 178.007 57.2814 180.146L52.3874 230.835L54.6813 294.101C54.7206 295.06 54.4507 296.006 53.9113 296.799C53.3719 297.593 52.5917 298.192 51.6858 298.508Z" fill="#1D63FF"/>
<path d="M207 477.342H1C0.734787 477.342 0.480433 477.237 0.292896 477.049C0.10536 476.862 3.8147e-06 476.608 3.8147e-06 476.342C3.8147e-06 476.077 0.10536 475.823 0.292896 475.635C0.480433 475.448 0.734787 475.342 1 475.342H207C207.265 475.342 207.52 475.448 207.707 475.635C207.895 475.823 208 476.077 208 476.342C208 476.608 207.895 476.862 207.707 477.049C207.52 477.237 207.265 477.342 207 477.342Z" fill="#CCCCCC"/>
</g>
<defs>
<clipPath id="clip0_626_1301">
<rect width="724.724" height="476.685" fill="white" transform="translate(0 0.657715)"/>
</clipPath>
</defs>
</svg>
