<svg width="64" height="42" viewBox="0 0 64 42" fill="none" xmlns="http://www.w3.org/2000/svg">
<g clip-path="url(#clip0_620_221)">
<path d="M32 41.5C49.6731 41.5 64 38.366 64 34.5C64 30.634 49.6731 27.5 32 27.5C14.3269 27.5 0 30.634 0 34.5C0 38.366 14.3269 41.5 32 41.5Z" fill="#F5F5F5"/>
<path d="M55 14.26L44.854 2.758C44.367 1.974 43.656 1.5 42.907 1.5H21.093C20.344 1.5 19.633 1.974 19.146 2.757L9 14.261V23.5H55V14.26Z" stroke="#D9D9D9"/>
<path d="M41.613 17.431C41.613 15.826 42.607 14.501 43.84 14.5H55V32.637C55 34.76 53.68 36.5 52.05 36.5H11.95C10.32 36.5 9 34.759 9 32.637V14.5H20.16C21.393 14.5 22.387 15.823 22.387 17.428V17.45C22.387 19.055 23.392 20.351 24.624 20.351H39.376C40.608 20.351 41.613 19.043 41.613 17.438V17.431Z" fill="#FAFAFA" stroke="#D9D9D9"/>
</g>
<defs>
<clipPath id="clip0_620_221">
<rect width="64" height="41" fill="white" transform="translate(0 0.5)"/>
</clipPath>
</defs>
</svg>
