<svg width="1160" height="604" viewBox="0 0 1160 604" fill="none" xmlns="http://www.w3.org/2000/svg">
<rect width="1160" height="604" rx="2" fill="white"/>
<g clip-path="url(#clip0_626_1250)">
<path d="M645.667 239.89C645.619 239.89 645.572 239.876 645.533 239.848L580.673 194.678C580.476 194.541 580.241 194.468 580.001 194.469C579.761 194.469 579.526 194.543 579.329 194.681L514.937 239.848C514.886 239.884 514.823 239.898 514.762 239.887C514.7 239.876 514.646 239.842 514.61 239.791C514.575 239.74 514.561 239.677 514.571 239.615C514.582 239.554 514.617 239.5 514.668 239.464L579.06 194.296C579.336 194.104 579.664 194.001 580 194C580.336 193.999 580.665 194.102 580.941 194.293L645.801 239.463C645.842 239.492 645.872 239.533 645.889 239.58C645.905 239.627 645.905 239.679 645.89 239.726C645.875 239.774 645.846 239.815 645.805 239.845C645.765 239.875 645.716 239.89 645.667 239.89Z" fill="#3F3D56"/>
<path d="M518.617 241.492L580.065 195.951L641.979 244.732L583.231 279.559L551.336 272.289L518.617 241.492Z" fill="#E6E6E6"/>
<path d="M554.028 301.07H523.671C523.484 301.07 523.3 301.034 523.128 300.962C522.955 300.891 522.799 300.787 522.667 300.655C522.535 300.523 522.43 300.367 522.359 300.195C522.288 300.023 522.251 299.838 522.251 299.652C522.251 299.465 522.288 299.281 522.359 299.108C522.43 298.936 522.535 298.78 522.667 298.648C522.799 298.516 522.955 298.412 523.128 298.341C523.3 298.27 523.484 298.233 523.671 298.233H554.028C554.214 298.233 554.399 298.27 554.571 298.341C554.743 298.412 554.9 298.516 555.032 298.648C555.164 298.78 555.268 298.936 555.34 299.108C555.411 299.281 555.448 299.465 555.448 299.652C555.448 299.838 555.411 300.023 555.34 300.195C555.268 300.367 555.164 300.523 555.032 300.655C554.9 300.787 554.743 300.891 554.571 300.962C554.399 301.034 554.214 301.07 554.028 301.07Z" fill="#00B112"/>
<path d="M534.562 294.972H523.671C523.484 294.972 523.3 294.936 523.128 294.865C522.955 294.794 522.799 294.689 522.667 294.557C522.535 294.426 522.43 294.269 522.359 294.097C522.288 293.925 522.251 293.74 522.251 293.554C522.251 293.368 522.288 293.183 522.359 293.011C522.43 292.839 522.535 292.682 522.667 292.55C522.799 292.419 522.955 292.314 523.128 292.243C523.3 292.172 523.484 292.136 523.671 292.136H534.562C534.749 292.136 534.933 292.172 535.106 292.243C535.278 292.314 535.434 292.419 535.566 292.55C535.698 292.682 535.803 292.839 535.874 293.011C535.946 293.183 535.982 293.368 535.982 293.554C535.982 293.74 535.946 293.925 535.874 294.097C535.803 294.269 535.698 294.426 535.566 294.557C535.434 294.689 535.278 294.794 535.106 294.865C534.933 294.936 534.749 294.972 534.562 294.972Z" fill="#00B112"/>
<path d="M580.929 266.857C580.698 266.857 580.469 266.813 580.256 266.725L542.359 251.001V201.78C542.359 201.345 542.533 200.928 542.84 200.62C543.148 200.312 543.565 200.139 544.001 200.139H616.703C617.138 200.139 617.556 200.312 617.863 200.62C618.171 200.928 618.344 201.345 618.345 201.78V251.035L618.273 251.066L581.622 266.718C581.402 266.81 581.167 266.857 580.929 266.857Z" fill="white"/>
<path d="M580.929 266.974C580.683 266.975 580.439 266.927 580.211 266.834L542.242 251.079V201.78C542.242 201.314 542.428 200.867 542.757 200.537C543.087 200.207 543.534 200.022 544.001 200.021H616.703C617.169 200.022 617.616 200.207 617.946 200.537C618.276 200.867 618.461 201.314 618.462 201.78V251.113L581.668 266.826C581.434 266.924 581.183 266.975 580.929 266.974ZM542.711 250.766L580.39 266.4C580.741 266.543 581.135 266.541 581.485 266.394L617.993 250.803V201.78C617.993 201.438 617.856 201.111 617.615 200.869C617.373 200.627 617.045 200.491 616.703 200.491H544.001C543.659 200.491 543.331 200.627 543.089 200.869C542.847 201.111 542.711 201.438 542.711 201.78L542.711 250.766Z" fill="#3F3D56"/>
<path d="M645.198 239.421H645.151L618.227 250.918L581.391 266.647C581.247 266.708 581.092 266.739 580.936 266.74C580.78 266.741 580.625 266.711 580.481 266.652L542.476 250.885L514.891 239.44L514.849 239.421H514.802C514.367 239.422 513.95 239.595 513.642 239.903C513.334 240.211 513.161 240.628 513.161 241.063V312.358C513.161 312.794 513.334 313.211 513.642 313.519C513.95 313.826 514.367 314 514.802 314H645.198C645.633 314 646.05 313.826 646.358 313.519C646.666 313.211 646.839 312.794 646.839 312.358V241.063C646.839 240.628 646.666 240.211 646.358 239.903C646.05 239.595 645.633 239.422 645.198 239.421ZM646.37 312.358C646.37 312.669 646.247 312.967 646.027 313.187C645.807 313.407 645.509 313.531 645.198 313.531H514.802C514.491 313.531 514.193 313.407 513.973 313.187C513.753 312.967 513.63 312.669 513.63 312.358V241.063C513.63 240.76 513.748 240.468 513.958 240.25C514.168 240.031 514.455 239.903 514.758 239.89L542.476 251.391L580.3 267.086C580.71 267.252 581.168 267.25 581.576 267.079L618.227 251.427L645.245 239.89C645.547 239.903 645.833 240.033 646.042 240.251C646.252 240.469 646.37 240.76 646.37 241.063V312.358Z" fill="#3F3D56"/>
<path d="M580.55 252.9C579.151 252.902 577.789 252.45 576.67 251.611L576.6 251.559L561.987 240.37C561.31 239.852 560.742 239.205 560.315 238.467C559.888 237.729 559.611 236.914 559.499 236.069C559.387 235.223 559.443 234.364 559.663 233.541C559.883 232.717 560.263 231.945 560.782 231.268C561.3 230.591 561.947 230.023 562.685 229.596C563.423 229.169 564.238 228.892 565.083 228.78C565.929 228.668 566.788 228.724 567.611 228.944C568.435 229.164 569.207 229.544 569.884 230.063L579.35 237.321L601.718 208.149C602.237 207.473 602.884 206.905 603.622 206.478C604.36 206.052 605.175 205.775 606.02 205.663C606.866 205.552 607.725 205.608 608.548 205.828C609.372 206.048 610.144 206.429 610.821 206.948L610.682 207.137L610.824 206.951C612.189 207.999 613.082 209.547 613.307 211.253C613.533 212.96 613.072 214.686 612.026 216.053L585.715 250.366C585.107 251.157 584.324 251.797 583.428 252.236C582.533 252.675 581.548 252.903 580.55 252.9Z" fill="#00B112"/>
</g>
<path d="M546.938 351.432V361.704H559.946V366.864H546.938V381H540.458V346.296H562.346V351.432H546.938ZM574.125 381H567.645V346.296H574.125V381ZM619.527 346.296V381H613.839V358.584C613.839 357.688 613.887 356.72 613.983 355.68L603.495 375.384C602.999 376.328 602.239 376.8 601.215 376.8H600.303C599.279 376.8 598.519 376.328 598.023 375.384L587.415 355.608C587.463 356.136 587.503 356.656 587.535 357.168C587.567 357.68 587.583 358.152 587.583 358.584V381H581.895V346.296H586.767C587.055 346.296 587.303 346.304 587.511 346.32C587.719 346.336 587.903 346.376 588.063 346.44C588.239 346.504 588.391 346.608 588.519 346.752C588.663 346.896 588.799 347.088 588.927 347.328L599.319 366.6C599.591 367.112 599.839 367.64 600.063 368.184C600.303 368.728 600.535 369.288 600.759 369.864C600.983 369.272 601.215 368.704 601.455 368.16C601.695 367.6 601.951 367.064 602.223 366.552L612.471 347.328C612.599 347.088 612.735 346.896 612.879 346.752C613.023 346.608 613.175 346.504 613.335 346.44C613.511 346.376 613.703 346.336 613.911 346.32C614.119 346.304 614.367 346.296 614.655 346.296H619.527Z" fill="#5B6075"/>
<path d="M439.261 399.182C439.201 399.284 439.138 399.359 439.072 399.407C439.006 399.455 438.922 399.479 438.82 399.479C438.712 399.479 438.589 399.431 438.451 399.335C438.313 399.233 438.139 399.122 437.929 399.002C437.725 398.876 437.479 398.765 437.191 398.669C436.903 398.567 436.558 398.516 436.156 398.516C435.778 398.516 435.445 398.567 435.157 398.669C434.875 398.765 434.638 398.9 434.446 399.074C434.254 399.242 434.107 399.443 434.005 399.677C433.909 399.905 433.861 400.154 433.861 400.424C433.861 400.772 433.948 401.06 434.122 401.288C434.302 401.516 434.536 401.711 434.824 401.873C435.112 402.035 435.439 402.176 435.805 402.296C436.171 402.416 436.546 402.542 436.93 402.674C437.314 402.8 437.689 402.947 438.055 403.115C438.421 403.283 438.748 403.496 439.036 403.754C439.324 404.006 439.555 404.318 439.729 404.69C439.909 405.056 439.999 405.506 439.999 406.04C439.999 406.61 439.9 407.144 439.702 407.642C439.51 408.14 439.228 408.575 438.856 408.947C438.484 409.319 438.025 409.613 437.479 409.829C436.939 410.039 436.324 410.144 435.634 410.144C435.22 410.144 434.818 410.102 434.428 410.018C434.038 409.94 433.669 409.829 433.321 409.685C432.973 409.535 432.646 409.358 432.34 409.154C432.04 408.944 431.77 408.71 431.53 408.452L432.079 407.534C432.133 407.462 432.196 407.402 432.268 407.354C432.346 407.306 432.433 407.282 432.529 407.282C432.655 407.282 432.799 407.348 432.961 407.48C433.129 407.612 433.333 407.759 433.573 407.921C433.819 408.077 434.11 408.221 434.446 408.353C434.788 408.485 435.202 408.551 435.688 408.551C436.084 408.551 436.438 408.5 436.75 408.398C437.062 408.29 437.323 408.14 437.533 407.948C437.749 407.75 437.914 407.513 438.028 407.237C438.142 406.961 438.199 406.655 438.199 406.319C438.199 405.941 438.112 405.632 437.938 405.392C437.764 405.152 437.533 404.951 437.245 404.789C436.957 404.627 436.63 404.489 436.264 404.375C435.898 404.261 435.523 404.144 435.139 404.024C434.755 403.898 434.38 403.754 434.014 403.592C433.648 403.43 433.321 403.22 433.033 402.962C432.745 402.698 432.514 402.371 432.34 401.981C432.166 401.585 432.079 401.099 432.079 400.523C432.079 400.061 432.169 399.614 432.349 399.182C432.529 398.75 432.79 398.369 433.132 398.039C433.48 397.703 433.906 397.436 434.41 397.238C434.914 397.034 435.49 396.932 436.138 396.932C436.864 396.932 437.53 397.049 438.136 397.283C438.748 397.511 439.279 397.841 439.729 398.273L439.261 399.182ZM448.01 404.411C448.01 404.063 447.959 403.742 447.857 403.448C447.761 403.154 447.617 402.899 447.425 402.683C447.233 402.467 446.999 402.299 446.723 402.179C446.447 402.059 446.129 401.999 445.769 401.999C445.031 401.999 444.449 402.212 444.023 402.638C443.603 403.064 443.336 403.655 443.222 404.411H448.01ZM449.459 408.695C449.243 408.947 448.994 409.166 448.712 409.352C448.43 409.532 448.13 409.679 447.812 409.793C447.494 409.907 447.164 409.991 446.822 410.045C446.486 410.099 446.153 410.126 445.823 410.126C445.193 410.126 444.608 410.021 444.068 409.811C443.534 409.595 443.069 409.283 442.673 408.875C442.283 408.461 441.977 407.951 441.755 407.345C441.539 406.733 441.431 406.031 441.431 405.239C441.431 404.603 441.53 404.012 441.728 403.466C441.926 402.914 442.208 402.434 442.574 402.026C442.946 401.618 443.399 401.297 443.933 401.063C444.467 400.829 445.067 400.712 445.733 400.712C446.291 400.712 446.804 400.805 447.272 400.991C447.746 401.171 448.154 401.435 448.496 401.783C448.838 402.131 449.105 402.56 449.297 403.07C449.495 403.58 449.594 404.162 449.594 404.816C449.594 405.086 449.564 405.269 449.504 405.365C449.444 405.455 449.333 405.5 449.171 405.5H443.177C443.195 406.046 443.273 406.523 443.411 406.931C443.549 407.333 443.738 407.669 443.978 407.939C444.224 408.209 444.515 408.41 444.851 408.542C445.187 408.674 445.562 408.74 445.976 408.74C446.366 408.74 446.702 408.695 446.984 408.605C447.272 408.515 447.518 408.419 447.722 408.317C447.932 408.209 448.106 408.11 448.244 408.02C448.388 407.93 448.514 407.885 448.622 407.885C448.766 407.885 448.877 407.939 448.955 408.047L449.459 408.695ZM459.085 400.856V410H458.032C457.792 410 457.636 409.883 457.564 409.649L457.438 408.731C457.24 408.941 457.033 409.133 456.817 409.307C456.601 409.481 456.37 409.631 456.124 409.757C455.878 409.877 455.617 409.97 455.341 410.036C455.065 410.108 454.768 410.144 454.45 410.144C453.946 410.144 453.502 410.06 453.118 409.892C452.74 409.724 452.422 409.49 452.164 409.19C451.906 408.884 451.711 408.518 451.579 408.092C451.447 407.666 451.381 407.195 451.381 406.679V400.856H453.145V406.679C453.145 407.333 453.295 407.843 453.595 408.209C453.895 408.569 454.354 408.749 454.972 408.749C455.422 408.749 455.842 408.644 456.232 408.434C456.622 408.218 456.988 407.924 457.33 407.552V400.856H459.085ZM473.586 400.856L469.878 410H468.294L464.586 400.856H466.035C466.173 400.856 466.287 400.889 466.377 400.955C466.467 401.021 466.527 401.105 466.557 401.207L468.744 406.823C468.822 407.057 468.888 407.291 468.942 407.525C469.002 407.753 469.056 407.981 469.104 408.209C469.152 407.981 469.206 407.753 469.266 407.525C469.326 407.297 469.398 407.063 469.482 406.823L471.696 401.207C471.732 401.105 471.795 401.021 471.885 400.955C471.975 400.889 472.083 400.856 472.209 400.856H473.586ZM478.615 400.712C479.287 400.712 479.893 400.823 480.433 401.045C480.979 401.261 481.441 401.576 481.819 401.99C482.203 402.398 482.497 402.893 482.701 403.475C482.905 404.051 483.007 404.699 483.007 405.419C483.007 406.139 482.905 406.79 482.701 407.372C482.497 407.954 482.203 408.449 481.819 408.857C481.441 409.265 480.979 409.58 480.433 409.802C479.893 410.018 479.287 410.126 478.615 410.126C477.937 410.126 477.325 410.018 476.779 409.802C476.239 409.58 475.777 409.265 475.393 408.857C475.009 408.449 474.712 407.954 474.502 407.372C474.298 406.79 474.196 406.139 474.196 405.419C474.196 404.699 474.298 404.051 474.502 403.475C474.712 402.893 475.009 402.398 475.393 401.99C475.777 401.576 476.239 401.261 476.779 401.045C477.325 400.823 477.937 400.712 478.615 400.712ZM478.615 408.758C479.479 408.758 480.124 408.467 480.55 407.885C480.976 407.303 481.189 406.484 481.189 405.428C481.189 404.372 480.976 403.553 480.55 402.971C480.124 402.383 479.479 402.089 478.615 402.089C477.739 402.089 477.085 402.383 476.653 402.971C476.227 403.553 476.014 404.372 476.014 405.428C476.014 406.484 476.227 407.303 476.653 407.885C477.085 408.467 477.739 408.758 478.615 408.758ZM487.653 410.144C486.915 410.144 486.345 409.937 485.943 409.523C485.547 409.109 485.349 408.518 485.349 407.75V402.278H484.287C484.185 402.278 484.098 402.248 484.026 402.188C483.96 402.122 483.927 402.026 483.927 401.9V401.189L485.412 400.982L485.808 398.255C485.832 398.153 485.877 398.075 485.943 398.021C486.015 397.961 486.105 397.931 486.213 397.931H487.104V401H489.696V402.278H487.104V407.633C487.104 407.993 487.191 408.263 487.365 408.443C487.545 408.617 487.773 408.704 488.049 408.704C488.211 408.704 488.349 408.683 488.463 408.641C488.583 408.599 488.685 408.554 488.769 408.506C488.853 408.452 488.925 408.404 488.985 408.362C489.045 408.32 489.099 408.299 489.147 408.299C489.207 408.299 489.252 408.314 489.282 408.344C489.318 408.368 489.354 408.41 489.39 408.47L489.912 409.316C489.624 409.58 489.282 409.784 488.886 409.928C488.49 410.072 488.079 410.144 487.653 410.144ZM495.156 400.712C495.828 400.712 496.434 400.823 496.974 401.045C497.52 401.261 497.982 401.576 498.36 401.99C498.744 402.398 499.038 402.893 499.242 403.475C499.446 404.051 499.548 404.699 499.548 405.419C499.548 406.139 499.446 406.79 499.242 407.372C499.038 407.954 498.744 408.449 498.36 408.857C497.982 409.265 497.52 409.58 496.974 409.802C496.434 410.018 495.828 410.126 495.156 410.126C494.478 410.126 493.866 410.018 493.32 409.802C492.78 409.58 492.318 409.265 491.934 408.857C491.55 408.449 491.253 407.954 491.043 407.372C490.839 406.79 490.737 406.139 490.737 405.419C490.737 404.699 490.839 404.051 491.043 403.475C491.253 402.893 491.55 402.398 491.934 401.99C492.318 401.576 492.78 401.261 493.32 401.045C493.866 400.823 494.478 400.712 495.156 400.712ZM495.156 408.758C496.02 408.758 496.665 408.467 497.091 407.885C497.517 407.303 497.73 406.484 497.73 405.428C497.73 404.372 497.517 403.553 497.091 402.971C496.665 402.383 496.02 402.089 495.156 402.089C494.28 402.089 493.626 402.383 493.194 402.971C492.768 403.553 492.555 404.372 492.555 405.428C492.555 406.484 492.768 407.303 493.194 407.885C493.626 408.467 494.28 408.758 495.156 408.758ZM506.663 410V402.296L505.709 402.179C505.571 402.149 505.457 402.101 505.367 402.035C505.283 401.963 505.241 401.861 505.241 401.729V401H506.663V400.172C506.663 399.65 506.738 399.185 506.888 398.777C507.038 398.369 507.251 398.024 507.527 397.742C507.809 397.454 508.145 397.238 508.535 397.094C508.931 396.944 509.375 396.869 509.867 396.869C510.281 396.869 510.662 396.929 511.01 397.049L510.974 397.931C510.968 398.009 510.944 398.069 510.902 398.111C510.86 398.147 510.803 398.174 510.731 398.192C510.665 398.21 510.581 398.222 510.479 398.228C510.383 398.228 510.278 398.228 510.164 398.228C509.894 398.228 509.648 398.261 509.426 398.327C509.204 398.393 509.015 398.504 508.859 398.66C508.703 398.816 508.583 399.023 508.499 399.281C508.415 399.533 508.373 399.848 508.373 400.226V401H510.938V402.278H508.427V410H506.663ZM516.022 400.712C516.694 400.712 517.3 400.823 517.84 401.045C518.386 401.261 518.848 401.576 519.226 401.99C519.61 402.398 519.904 402.893 520.108 403.475C520.312 404.051 520.414 404.699 520.414 405.419C520.414 406.139 520.312 406.79 520.108 407.372C519.904 407.954 519.61 408.449 519.226 408.857C518.848 409.265 518.386 409.58 517.84 409.802C517.3 410.018 516.694 410.126 516.022 410.126C515.344 410.126 514.732 410.018 514.186 409.802C513.646 409.58 513.184 409.265 512.8 408.857C512.416 408.449 512.119 407.954 511.909 407.372C511.705 406.79 511.603 406.139 511.603 405.419C511.603 404.699 511.705 404.051 511.909 403.475C512.119 402.893 512.416 402.398 512.8 401.99C513.184 401.576 513.646 401.261 514.186 401.045C514.732 400.823 515.344 400.712 516.022 400.712ZM516.022 408.758C516.886 408.758 517.531 408.467 517.957 407.885C518.383 407.303 518.596 406.484 518.596 405.428C518.596 404.372 518.383 403.553 517.957 402.971C517.531 402.383 516.886 402.089 516.022 402.089C515.146 402.089 514.492 402.383 514.06 402.971C513.634 403.553 513.421 404.372 513.421 405.428C513.421 406.484 513.634 407.303 514.06 407.885C514.492 408.467 515.146 408.758 516.022 408.758ZM524.209 400.856V410H522.454V400.856H524.209ZM524.542 398.03C524.542 398.192 524.509 398.348 524.443 398.498C524.377 398.642 524.287 398.771 524.173 398.885C524.065 398.993 523.936 399.08 523.786 399.146C523.636 399.206 523.48 399.236 523.318 399.236C523.156 399.236 523.003 399.206 522.859 399.146C522.715 399.08 522.586 398.993 522.472 398.885C522.364 398.771 522.277 398.642 522.211 398.498C522.151 398.348 522.121 398.192 522.121 398.03C522.121 397.862 522.151 397.706 522.211 397.562C522.277 397.412 522.364 397.283 522.472 397.175C522.586 397.061 522.715 396.974 522.859 396.914C523.003 396.848 523.156 396.815 523.318 396.815C523.48 396.815 523.636 396.848 523.786 396.914C523.936 396.974 524.065 397.061 524.173 397.175C524.287 397.283 524.377 397.412 524.443 397.562C524.509 397.706 524.542 397.862 524.542 398.03ZM537.71 402.566C537.656 402.632 537.602 402.686 537.548 402.728C537.5 402.764 537.428 402.782 537.332 402.782C537.236 402.782 537.134 402.746 537.026 402.674C536.924 402.596 536.792 402.515 536.63 402.431C536.474 402.341 536.282 402.26 536.054 402.188C535.832 402.11 535.556 402.071 535.226 402.071C534.794 402.071 534.413 402.149 534.083 402.305C533.753 402.461 533.477 402.683 533.255 402.971C533.039 403.259 532.874 403.61 532.76 404.024C532.646 404.438 532.589 404.903 532.589 405.419C532.589 405.953 532.649 406.43 532.769 406.85C532.889 407.264 533.06 407.615 533.282 407.903C533.504 408.185 533.774 408.401 534.092 408.551C534.41 408.695 534.764 408.767 535.154 408.767C535.532 408.767 535.844 408.722 536.09 408.632C536.336 408.536 536.54 408.434 536.702 408.326C536.864 408.218 536.999 408.119 537.107 408.029C537.215 407.933 537.326 407.885 537.44 407.885C537.584 407.885 537.695 407.939 537.773 408.047L538.277 408.695C538.067 408.953 537.83 409.172 537.566 409.352C537.308 409.532 537.032 409.679 536.738 409.793C536.444 409.907 536.135 409.991 535.811 410.045C535.493 410.099 535.169 410.126 534.839 410.126C534.269 410.126 533.735 410.021 533.237 409.811C532.745 409.601 532.316 409.295 531.95 408.893C531.59 408.491 531.305 407.999 531.095 407.417C530.885 406.829 530.78 406.163 530.78 405.419C530.78 404.741 530.873 404.114 531.059 403.538C531.251 402.962 531.53 402.467 531.896 402.053C532.268 401.633 532.724 401.306 533.264 401.072C533.804 400.832 534.422 400.712 535.118 400.712C535.772 400.712 536.348 400.817 536.846 401.027C537.344 401.237 537.788 401.534 538.178 401.918L537.71 402.566ZM543.654 400.712C544.326 400.712 544.932 400.823 545.472 401.045C546.018 401.261 546.48 401.576 546.858 401.99C547.242 402.398 547.536 402.893 547.74 403.475C547.944 404.051 548.046 404.699 548.046 405.419C548.046 406.139 547.944 406.79 547.74 407.372C547.536 407.954 547.242 408.449 546.858 408.857C546.48 409.265 546.018 409.58 545.472 409.802C544.932 410.018 544.326 410.126 543.654 410.126C542.976 410.126 542.364 410.018 541.818 409.802C541.278 409.58 540.816 409.265 540.432 408.857C540.048 408.449 539.751 407.954 539.541 407.372C539.337 406.79 539.235 406.139 539.235 405.419C539.235 404.699 539.337 404.051 539.541 403.475C539.751 402.893 540.048 402.398 540.432 401.99C540.816 401.576 541.278 401.261 541.818 401.045C542.364 400.823 542.976 400.712 543.654 400.712ZM543.654 408.758C544.518 408.758 545.163 408.467 545.589 407.885C546.015 407.303 546.228 406.484 546.228 405.428C546.228 404.372 546.015 403.553 545.589 402.971C545.163 402.383 544.518 402.089 543.654 402.089C542.778 402.089 542.124 402.383 541.692 402.971C541.266 403.553 541.053 404.372 541.053 405.428C541.053 406.484 541.266 407.303 541.692 407.885C542.124 408.467 542.778 408.758 543.654 408.758ZM550.005 410V400.856H551.058C551.304 400.856 551.457 400.973 551.517 401.207L551.643 402.08C551.979 401.678 552.351 401.351 552.759 401.099C553.173 400.841 553.656 400.712 554.208 400.712C554.814 400.712 555.306 400.88 555.684 401.216C556.062 401.546 556.338 401.996 556.512 402.566C556.644 402.242 556.815 401.963 557.025 401.729C557.235 401.495 557.469 401.303 557.727 401.153C557.985 401.003 558.258 400.892 558.546 400.82C558.84 400.748 559.137 400.712 559.437 400.712C559.923 400.712 560.355 400.79 560.733 400.946C561.117 401.096 561.441 401.318 561.705 401.612C561.969 401.906 562.17 402.269 562.308 402.701C562.446 403.133 562.515 403.625 562.515 404.177V410H560.751V404.177C560.751 403.493 560.601 402.977 560.301 402.629C560.007 402.281 559.575 402.107 559.005 402.107C558.753 402.107 558.513 402.152 558.285 402.242C558.057 402.326 557.856 402.455 557.682 402.629C557.514 402.803 557.379 403.019 557.277 403.277C557.181 403.535 557.133 403.835 557.133 404.177V410H555.369V404.177C555.369 403.469 555.228 402.947 554.946 402.611C554.664 402.275 554.25 402.107 553.704 402.107C553.326 402.107 552.975 402.206 552.651 402.404C552.327 402.602 552.03 402.872 551.76 403.214V410H550.005ZM566.632 407.75C566.92 408.128 567.229 408.392 567.559 408.542C567.895 408.692 568.27 408.767 568.684 408.767C569.488 408.767 570.109 408.479 570.547 407.903C570.991 407.321 571.213 406.475 571.213 405.365C571.213 404.783 571.162 404.288 571.06 403.88C570.964 403.466 570.82 403.13 570.628 402.872C570.442 402.608 570.211 402.416 569.935 402.296C569.659 402.17 569.347 402.107 568.999 402.107C568.489 402.107 568.045 402.221 567.667 402.449C567.295 402.677 566.95 403.001 566.632 403.421V407.75ZM566.542 402.224C566.734 401.996 566.938 401.789 567.154 401.603C567.376 401.411 567.613 401.249 567.865 401.117C568.117 400.979 568.384 400.874 568.666 400.802C568.954 400.724 569.26 400.685 569.584 400.685C570.106 400.685 570.577 400.787 570.997 400.991C571.423 401.195 571.786 401.495 572.086 401.891C572.386 402.287 572.617 402.776 572.779 403.358C572.947 403.94 573.031 404.609 573.031 405.365C573.031 406.043 572.938 406.673 572.752 407.255C572.572 407.831 572.311 408.332 571.969 408.758C571.633 409.184 571.219 409.52 570.727 409.766C570.241 410.006 569.692 410.126 569.08 410.126C568.534 410.126 568.066 410.036 567.676 409.856C567.286 409.676 566.938 409.424 566.632 409.1V413.069H564.877V400.856H565.93C566.176 400.856 566.329 400.973 566.389 401.207L566.542 402.224ZM582.607 400.856V410H581.554C581.314 410 581.158 409.883 581.086 409.649L580.96 408.731C580.762 408.941 580.555 409.133 580.339 409.307C580.123 409.481 579.892 409.631 579.646 409.757C579.4 409.877 579.139 409.97 578.863 410.036C578.587 410.108 578.29 410.144 577.972 410.144C577.468 410.144 577.024 410.06 576.64 409.892C576.262 409.724 575.944 409.49 575.686 409.19C575.428 408.884 575.233 408.518 575.101 408.092C574.969 407.666 574.903 407.195 574.903 406.679V400.856H576.667V406.679C576.667 407.333 576.817 407.843 577.117 408.209C577.417 408.569 577.876 408.749 578.494 408.749C578.944 408.749 579.364 408.644 579.754 408.434C580.144 408.218 580.51 407.924 580.852 407.552V400.856H582.607ZM587.918 410.144C587.18 410.144 586.61 409.937 586.208 409.523C585.812 409.109 585.614 408.518 585.614 407.75V402.278H584.552C584.45 402.278 584.363 402.248 584.291 402.188C584.225 402.122 584.192 402.026 584.192 401.9V401.189L585.677 400.982L586.073 398.255C586.097 398.153 586.142 398.075 586.208 398.021C586.28 397.961 586.37 397.931 586.478 397.931H587.369V401H589.961V402.278H587.369V407.633C587.369 407.993 587.456 408.263 587.63 408.443C587.81 408.617 588.038 408.704 588.314 408.704C588.476 408.704 588.614 408.683 588.728 408.641C588.848 408.599 588.95 408.554 589.034 408.506C589.118 408.452 589.19 408.404 589.25 408.362C589.31 408.32 589.364 408.299 589.412 408.299C589.472 408.299 589.517 408.314 589.547 408.344C589.583 408.368 589.619 408.41 589.655 408.47L590.177 409.316C589.889 409.58 589.547 409.784 589.151 409.928C588.755 410.072 588.344 410.144 587.918 410.144ZM596.492 405.941C595.778 405.965 595.172 406.022 594.674 406.112C594.176 406.196 593.771 406.31 593.459 406.454C593.147 406.598 592.922 406.769 592.784 406.967C592.646 407.159 592.577 407.375 592.577 407.615C592.577 407.843 592.613 408.041 592.685 408.209C592.763 408.371 592.865 408.506 592.991 408.614C593.123 408.716 593.276 408.791 593.45 408.839C593.624 408.887 593.813 408.911 594.017 408.911C594.287 408.911 594.533 408.884 594.755 408.83C594.983 408.776 595.196 408.701 595.394 408.605C595.592 408.503 595.781 408.38 595.961 408.236C596.141 408.092 596.318 407.927 596.492 407.741V405.941ZM591.344 402.134C591.854 401.648 592.406 401.285 593 401.045C593.6 400.805 594.257 400.685 594.971 400.685C595.493 400.685 595.955 400.772 596.357 400.946C596.759 401.114 597.098 401.351 597.374 401.657C597.65 401.963 597.857 402.329 597.995 402.755C598.139 403.181 598.211 403.652 598.211 404.168V410H597.428C597.254 410 597.122 409.973 597.032 409.919C596.942 409.859 596.87 409.751 596.816 409.595L596.627 408.794C596.393 409.01 596.162 409.202 595.934 409.37C595.706 409.532 595.466 409.673 595.214 409.793C594.968 409.907 594.704 409.994 594.422 410.054C594.14 410.114 593.828 410.144 593.486 410.144C593.126 410.144 592.787 410.096 592.469 410C592.157 409.898 591.884 409.745 591.65 409.541C591.416 409.337 591.23 409.082 591.092 408.776C590.96 408.47 590.894 408.113 590.894 407.705C590.894 407.345 590.99 407 591.182 406.67C591.38 406.334 591.698 406.034 592.136 405.77C592.58 405.506 593.156 405.29 593.864 405.122C594.578 404.954 595.454 404.858 596.492 404.834V404.168C596.492 403.478 596.345 402.962 596.051 402.62C595.757 402.278 595.325 402.107 594.755 402.107C594.371 402.107 594.047 402.155 593.783 402.251C593.525 402.347 593.3 402.455 593.108 402.575C592.922 402.689 592.757 402.794 592.613 402.89C592.475 402.986 592.331 403.034 592.181 403.034C592.061 403.034 591.956 403.001 591.866 402.935C591.782 402.869 591.713 402.791 591.659 402.701L591.344 402.134ZM606.455 403.07C606.167 402.692 605.855 402.428 605.519 402.278C605.189 402.128 604.817 402.053 604.403 402.053C603.599 402.053 602.975 402.344 602.531 402.926C602.093 403.502 601.874 404.345 601.874 405.455C601.874 406.037 601.922 406.535 602.018 406.949C602.12 407.357 602.264 407.693 602.45 407.957C602.642 408.215 602.876 408.407 603.152 408.533C603.428 408.653 603.74 408.713 604.088 408.713C604.598 408.713 605.039 408.599 605.411 408.371C605.783 408.143 606.131 407.822 606.455 407.408V403.07ZM608.219 396.716V410H607.157C606.911 410 606.758 409.883 606.698 409.649L606.545 408.596C606.155 409.058 605.711 409.43 605.213 409.712C604.721 409.988 604.151 410.126 603.503 410.126C602.981 410.126 602.507 410.024 602.081 409.82C601.661 409.616 601.301 409.319 601.001 408.929C600.701 408.533 600.47 408.044 600.308 407.462C600.146 406.88 600.065 406.211 600.065 405.455C600.065 404.777 600.155 404.147 600.335 403.565C600.515 402.983 600.776 402.479 601.118 402.053C601.46 401.627 601.874 401.294 602.36 401.054C602.846 400.808 603.395 400.685 604.007 400.685C604.559 400.685 605.027 400.775 605.411 400.955C605.801 401.135 606.149 401.39 606.455 401.72V396.716H608.219ZM614.565 400.712C615.237 400.712 615.843 400.823 616.383 401.045C616.929 401.261 617.391 401.576 617.769 401.99C618.153 402.398 618.447 402.893 618.651 403.475C618.855 404.051 618.957 404.699 618.957 405.419C618.957 406.139 618.855 406.79 618.651 407.372C618.447 407.954 618.153 408.449 617.769 408.857C617.391 409.265 616.929 409.58 616.383 409.802C615.843 410.018 615.237 410.126 614.565 410.126C613.887 410.126 613.275 410.018 612.729 409.802C612.189 409.58 611.727 409.265 611.343 408.857C610.959 408.449 610.662 407.954 610.452 407.372C610.248 406.79 610.146 406.139 610.146 405.419C610.146 404.699 610.248 404.051 610.452 403.475C610.662 402.893 610.959 402.398 611.343 401.99C611.727 401.576 612.189 401.261 612.729 401.045C613.275 400.823 613.887 400.712 614.565 400.712ZM614.565 408.758C615.429 408.758 616.074 408.467 616.5 407.885C616.926 407.303 617.139 406.484 617.139 405.428C617.139 404.372 616.926 403.553 616.5 402.971C616.074 402.383 615.429 402.089 614.565 402.089C613.689 402.089 613.035 402.383 612.603 402.971C612.177 403.553 611.964 404.372 611.964 405.428C611.964 406.484 612.177 407.303 612.603 407.885C613.035 408.467 613.689 408.758 614.565 408.758ZM631.876 402.566C631.822 402.632 631.768 402.686 631.714 402.728C631.666 402.764 631.594 402.782 631.498 402.782C631.402 402.782 631.3 402.746 631.192 402.674C631.09 402.596 630.958 402.515 630.796 402.431C630.64 402.341 630.448 402.26 630.22 402.188C629.998 402.11 629.722 402.071 629.392 402.071C628.96 402.071 628.579 402.149 628.249 402.305C627.919 402.461 627.643 402.683 627.421 402.971C627.205 403.259 627.04 403.61 626.926 404.024C626.812 404.438 626.755 404.903 626.755 405.419C626.755 405.953 626.815 406.43 626.935 406.85C627.055 407.264 627.226 407.615 627.448 407.903C627.67 408.185 627.94 408.401 628.258 408.551C628.576 408.695 628.93 408.767 629.32 408.767C629.698 408.767 630.01 408.722 630.256 408.632C630.502 408.536 630.706 408.434 630.868 408.326C631.03 408.218 631.165 408.119 631.273 408.029C631.381 407.933 631.492 407.885 631.606 407.885C631.75 407.885 631.861 407.939 631.939 408.047L632.443 408.695C632.233 408.953 631.996 409.172 631.732 409.352C631.474 409.532 631.198 409.679 630.904 409.793C630.61 409.907 630.301 409.991 629.977 410.045C629.659 410.099 629.335 410.126 629.005 410.126C628.435 410.126 627.901 410.021 627.403 409.811C626.911 409.601 626.482 409.295 626.116 408.893C625.756 408.491 625.471 407.999 625.261 407.417C625.051 406.829 624.946 406.163 624.946 405.419C624.946 404.741 625.039 404.114 625.225 403.538C625.417 402.962 625.696 402.467 626.062 402.053C626.434 401.633 626.89 401.306 627.43 401.072C627.97 400.832 628.588 400.712 629.284 400.712C629.938 400.712 630.514 400.817 631.012 401.027C631.51 401.237 631.954 401.534 632.344 401.918L631.876 402.566ZM637.82 400.712C638.492 400.712 639.098 400.823 639.638 401.045C640.184 401.261 640.646 401.576 641.024 401.99C641.408 402.398 641.702 402.893 641.906 403.475C642.11 404.051 642.212 404.699 642.212 405.419C642.212 406.139 642.11 406.79 641.906 407.372C641.702 407.954 641.408 408.449 641.024 408.857C640.646 409.265 640.184 409.58 639.638 409.802C639.098 410.018 638.492 410.126 637.82 410.126C637.142 410.126 636.53 410.018 635.984 409.802C635.444 409.58 634.982 409.265 634.598 408.857C634.214 408.449 633.917 407.954 633.707 407.372C633.503 406.79 633.401 406.139 633.401 405.419C633.401 404.699 633.503 404.051 633.707 403.475C633.917 402.893 634.214 402.398 634.598 401.99C634.982 401.576 635.444 401.261 635.984 401.045C636.53 400.823 637.142 400.712 637.82 400.712ZM637.82 408.758C638.684 408.758 639.329 408.467 639.755 407.885C640.181 407.303 640.394 406.484 640.394 405.428C640.394 404.372 640.181 403.553 639.755 402.971C639.329 402.383 638.684 402.089 637.82 402.089C636.944 402.089 636.29 402.383 635.858 402.971C635.432 403.553 635.219 404.372 635.219 405.428C635.219 406.484 635.432 407.303 635.858 407.885C636.29 408.467 636.944 408.758 637.82 408.758ZM644.171 410V400.856H645.224C645.47 400.856 645.623 400.973 645.683 401.207L645.809 402.08C646.145 401.678 646.517 401.351 646.925 401.099C647.339 400.841 647.822 400.712 648.374 400.712C648.98 400.712 649.472 400.88 649.85 401.216C650.228 401.546 650.504 401.996 650.678 402.566C650.81 402.242 650.981 401.963 651.191 401.729C651.401 401.495 651.635 401.303 651.893 401.153C652.151 401.003 652.424 400.892 652.712 400.82C653.006 400.748 653.303 400.712 653.603 400.712C654.089 400.712 654.521 400.79 654.899 400.946C655.283 401.096 655.607 401.318 655.871 401.612C656.135 401.906 656.336 402.269 656.474 402.701C656.612 403.133 656.681 403.625 656.681 404.177V410H654.917V404.177C654.917 403.493 654.767 402.977 654.467 402.629C654.173 402.281 653.741 402.107 653.171 402.107C652.919 402.107 652.679 402.152 652.451 402.242C652.223 402.326 652.022 402.455 651.848 402.629C651.68 402.803 651.545 403.019 651.443 403.277C651.347 403.535 651.299 403.835 651.299 404.177V410H649.535V404.177C649.535 403.469 649.394 402.947 649.112 402.611C648.83 402.275 648.416 402.107 647.87 402.107C647.492 402.107 647.141 402.206 646.817 402.404C646.493 402.602 646.196 402.872 645.926 403.214V410H644.171ZM668.986 402.431C668.938 402.509 668.887 402.566 668.833 402.602C668.779 402.632 668.71 402.647 668.626 402.647C668.53 402.647 668.422 402.614 668.302 402.548C668.188 402.482 668.047 402.41 667.879 402.332C667.717 402.254 667.525 402.182 667.303 402.116C667.081 402.05 666.817 402.017 666.511 402.017C666.259 402.017 666.028 402.05 665.818 402.116C665.614 402.176 665.44 402.263 665.296 402.377C665.152 402.485 665.041 402.617 664.963 402.773C664.885 402.923 664.846 403.085 664.846 403.259C664.846 403.487 664.912 403.676 665.044 403.826C665.182 403.976 665.359 404.105 665.575 404.213C665.797 404.321 666.046 404.42 666.322 404.51C666.604 404.594 666.889 404.684 667.177 404.78C667.471 404.876 667.756 404.987 668.032 405.113C668.314 405.233 668.563 405.386 668.779 405.572C669.001 405.752 669.178 405.971 669.31 406.229C669.448 406.487 669.517 406.802 669.517 407.174C669.517 407.6 669.439 407.996 669.283 408.362C669.133 408.722 668.908 409.034 668.608 409.298C668.314 409.562 667.948 409.769 667.51 409.919C667.072 410.069 666.571 410.144 666.007 410.144C665.377 410.144 664.795 410.039 664.261 409.829C663.727 409.619 663.28 409.352 662.92 409.028L663.334 408.353C663.382 408.269 663.442 408.206 663.514 408.164C663.586 408.116 663.682 408.092 663.802 408.092C663.916 408.092 664.033 408.134 664.153 408.218C664.273 408.302 664.417 408.395 664.585 408.497C664.753 408.593 664.957 408.683 665.197 408.767C665.437 408.845 665.737 408.884 666.097 408.884C666.397 408.884 666.658 408.848 666.88 408.776C667.102 408.698 667.285 408.596 667.429 408.47C667.579 408.338 667.69 408.188 667.762 408.02C667.834 407.852 667.87 407.675 667.87 407.489C667.87 407.249 667.801 407.051 667.663 406.895C667.531 406.733 667.354 406.595 667.132 406.481C666.916 406.367 666.667 406.268 666.385 406.184C666.103 406.1 665.815 406.01 665.521 405.914C665.227 405.818 664.939 405.707 664.657 405.581C664.375 405.455 664.123 405.296 663.901 405.104C663.685 404.912 663.508 404.678 663.37 404.402C663.238 404.126 663.172 403.79 663.172 403.394C663.172 403.04 663.244 402.701 663.388 402.377C663.538 402.053 663.751 401.768 664.027 401.522C664.309 401.276 664.654 401.081 665.062 400.937C665.476 400.787 665.947 400.712 666.475 400.712C667.081 400.712 667.627 400.808 668.113 401C668.605 401.192 669.025 401.456 669.373 401.792L668.986 402.431ZM679.023 400.856V410H677.97C677.73 410 677.574 409.883 677.502 409.649L677.376 408.731C677.178 408.941 676.971 409.133 676.755 409.307C676.539 409.481 676.308 409.631 676.062 409.757C675.816 409.877 675.555 409.97 675.279 410.036C675.003 410.108 674.706 410.144 674.388 410.144C673.884 410.144 673.44 410.06 673.056 409.892C672.678 409.724 672.36 409.49 672.102 409.19C671.844 408.884 671.649 408.518 671.517 408.092C671.385 407.666 671.319 407.195 671.319 406.679V400.856H673.083V406.679C673.083 407.333 673.233 407.843 673.533 408.209C673.833 408.569 674.292 408.749 674.91 408.749C675.36 408.749 675.78 408.644 676.17 408.434C676.56 408.218 676.926 407.924 677.268 407.552V400.856H679.023ZM687.88 402.566C687.826 402.632 687.772 402.686 687.718 402.728C687.67 402.764 687.598 402.782 687.502 402.782C687.406 402.782 687.304 402.746 687.196 402.674C687.094 402.596 686.962 402.515 686.8 402.431C686.644 402.341 686.452 402.26 686.224 402.188C686.002 402.11 685.726 402.071 685.396 402.071C684.964 402.071 684.583 402.149 684.253 402.305C683.923 402.461 683.647 402.683 683.425 402.971C683.209 403.259 683.044 403.61 682.93 404.024C682.816 404.438 682.759 404.903 682.759 405.419C682.759 405.953 682.819 406.43 682.939 406.85C683.059 407.264 683.23 407.615 683.452 407.903C683.674 408.185 683.944 408.401 684.262 408.551C684.58 408.695 684.934 408.767 685.324 408.767C685.702 408.767 686.014 408.722 686.26 408.632C686.506 408.536 686.71 408.434 686.872 408.326C687.034 408.218 687.169 408.119 687.277 408.029C687.385 407.933 687.496 407.885 687.61 407.885C687.754 407.885 687.865 407.939 687.943 408.047L688.447 408.695C688.237 408.953 688 409.172 687.736 409.352C687.478 409.532 687.202 409.679 686.908 409.793C686.614 409.907 686.305 409.991 685.981 410.045C685.663 410.099 685.339 410.126 685.009 410.126C684.439 410.126 683.905 410.021 683.407 409.811C682.915 409.601 682.486 409.295 682.12 408.893C681.76 408.491 681.475 407.999 681.265 407.417C681.055 406.829 680.95 406.163 680.95 405.419C680.95 404.741 681.043 404.114 681.229 403.538C681.421 402.962 681.7 402.467 682.066 402.053C682.438 401.633 682.894 401.306 683.434 401.072C683.974 400.832 684.592 400.712 685.288 400.712C685.942 400.712 686.518 400.817 687.016 401.027C687.514 401.237 687.958 401.534 688.348 401.918L687.88 402.566ZM695.984 404.411C695.984 404.063 695.933 403.742 695.831 403.448C695.735 403.154 695.591 402.899 695.399 402.683C695.207 402.467 694.973 402.299 694.697 402.179C694.421 402.059 694.103 401.999 693.743 401.999C693.005 401.999 692.423 402.212 691.997 402.638C691.577 403.064 691.31 403.655 691.196 404.411H695.984ZM697.433 408.695C697.217 408.947 696.968 409.166 696.686 409.352C696.404 409.532 696.104 409.679 695.786 409.793C695.468 409.907 695.138 409.991 694.796 410.045C694.46 410.099 694.127 410.126 693.797 410.126C693.167 410.126 692.582 410.021 692.042 409.811C691.508 409.595 691.043 409.283 690.647 408.875C690.257 408.461 689.951 407.951 689.729 407.345C689.513 406.733 689.405 406.031 689.405 405.239C689.405 404.603 689.504 404.012 689.702 403.466C689.9 402.914 690.182 402.434 690.548 402.026C690.92 401.618 691.373 401.297 691.907 401.063C692.441 400.829 693.041 400.712 693.707 400.712C694.265 400.712 694.778 400.805 695.246 400.991C695.72 401.171 696.128 401.435 696.47 401.783C696.812 402.131 697.079 402.56 697.271 403.07C697.469 403.58 697.568 404.162 697.568 404.816C697.568 405.086 697.538 405.269 697.478 405.365C697.418 405.455 697.307 405.5 697.145 405.5H691.151C691.169 406.046 691.247 406.523 691.385 406.931C691.523 407.333 691.712 407.669 691.952 407.939C692.198 408.209 692.489 408.41 692.825 408.542C693.161 408.674 693.536 408.74 693.95 408.74C694.34 408.74 694.676 408.695 694.958 408.605C695.246 408.515 695.492 408.419 695.696 408.317C695.906 408.209 696.08 408.11 696.218 408.02C696.362 407.93 696.488 407.885 696.596 407.885C696.74 407.885 696.851 407.939 696.929 408.047L697.433 408.695ZM704.846 402.431C704.798 402.509 704.747 402.566 704.693 402.602C704.639 402.632 704.57 402.647 704.486 402.647C704.39 402.647 704.282 402.614 704.162 402.548C704.048 402.482 703.907 402.41 703.739 402.332C703.577 402.254 703.385 402.182 703.163 402.116C702.941 402.05 702.677 402.017 702.371 402.017C702.119 402.017 701.888 402.05 701.678 402.116C701.474 402.176 701.3 402.263 701.156 402.377C701.012 402.485 700.901 402.617 700.823 402.773C700.745 402.923 700.706 403.085 700.706 403.259C700.706 403.487 700.772 403.676 700.904 403.826C701.042 403.976 701.219 404.105 701.435 404.213C701.657 404.321 701.906 404.42 702.182 404.51C702.464 404.594 702.749 404.684 703.037 404.78C703.331 404.876 703.616 404.987 703.892 405.113C704.174 405.233 704.423 405.386 704.639 405.572C704.861 405.752 705.038 405.971 705.17 406.229C705.308 406.487 705.377 406.802 705.377 407.174C705.377 407.6 705.299 407.996 705.143 408.362C704.993 408.722 704.768 409.034 704.468 409.298C704.174 409.562 703.808 409.769 703.37 409.919C702.932 410.069 702.431 410.144 701.867 410.144C701.237 410.144 700.655 410.039 700.121 409.829C699.587 409.619 699.14 409.352 698.78 409.028L699.194 408.353C699.242 408.269 699.302 408.206 699.374 408.164C699.446 408.116 699.542 408.092 699.662 408.092C699.776 408.092 699.893 408.134 700.013 408.218C700.133 408.302 700.277 408.395 700.445 408.497C700.613 408.593 700.817 408.683 701.057 408.767C701.297 408.845 701.597 408.884 701.957 408.884C702.257 408.884 702.518 408.848 702.74 408.776C702.962 408.698 703.145 408.596 703.289 408.47C703.439 408.338 703.55 408.188 703.622 408.02C703.694 407.852 703.73 407.675 703.73 407.489C703.73 407.249 703.661 407.051 703.523 406.895C703.391 406.733 703.214 406.595 702.992 406.481C702.776 406.367 702.527 406.268 702.245 406.184C701.963 406.1 701.675 406.01 701.381 405.914C701.087 405.818 700.799 405.707 700.517 405.581C700.235 405.455 699.983 405.296 699.761 405.104C699.545 404.912 699.368 404.678 699.23 404.402C699.098 404.126 699.032 403.79 699.032 403.394C699.032 403.04 699.104 402.701 699.248 402.377C699.398 402.053 699.611 401.768 699.887 401.522C700.169 401.276 700.514 401.081 700.922 400.937C701.336 400.787 701.807 400.712 702.335 400.712C702.941 400.712 703.487 400.808 703.973 401C704.465 401.192 704.885 401.456 705.233 401.792L704.846 402.431ZM712.668 402.431C712.62 402.509 712.569 402.566 712.515 402.602C712.461 402.632 712.392 402.647 712.308 402.647C712.212 402.647 712.104 402.614 711.984 402.548C711.87 402.482 711.729 402.41 711.561 402.332C711.399 402.254 711.207 402.182 710.985 402.116C710.763 402.05 710.499 402.017 710.193 402.017C709.941 402.017 709.71 402.05 709.5 402.116C709.296 402.176 709.122 402.263 708.978 402.377C708.834 402.485 708.723 402.617 708.645 402.773C708.567 402.923 708.528 403.085 708.528 403.259C708.528 403.487 708.594 403.676 708.726 403.826C708.864 403.976 709.041 404.105 709.257 404.213C709.479 404.321 709.728 404.42 710.004 404.51C710.286 404.594 710.571 404.684 710.859 404.78C711.153 404.876 711.438 404.987 711.714 405.113C711.996 405.233 712.245 405.386 712.461 405.572C712.683 405.752 712.86 405.971 712.992 406.229C713.13 406.487 713.199 406.802 713.199 407.174C713.199 407.6 713.121 407.996 712.965 408.362C712.815 408.722 712.59 409.034 712.29 409.298C711.996 409.562 711.63 409.769 711.192 409.919C710.754 410.069 710.253 410.144 709.689 410.144C709.059 410.144 708.477 410.039 707.943 409.829C707.409 409.619 706.962 409.352 706.602 409.028L707.016 408.353C707.064 408.269 707.124 408.206 707.196 408.164C707.268 408.116 707.364 408.092 707.484 408.092C707.598 408.092 707.715 408.134 707.835 408.218C707.955 408.302 708.099 408.395 708.267 408.497C708.435 408.593 708.639 408.683 708.879 408.767C709.119 408.845 709.419 408.884 709.779 408.884C710.079 408.884 710.34 408.848 710.562 408.776C710.784 408.698 710.967 408.596 711.111 408.47C711.261 408.338 711.372 408.188 711.444 408.02C711.516 407.852 711.552 407.675 711.552 407.489C711.552 407.249 711.483 407.051 711.345 406.895C711.213 406.733 711.036 406.595 710.814 406.481C710.598 406.367 710.349 406.268 710.067 406.184C709.785 406.1 709.497 406.01 709.203 405.914C708.909 405.818 708.621 405.707 708.339 405.581C708.057 405.455 707.805 405.296 707.583 405.104C707.367 404.912 707.19 404.678 707.052 404.402C706.92 404.126 706.854 403.79 706.854 403.394C706.854 403.04 706.926 402.701 707.07 402.377C707.22 402.053 707.433 401.768 707.709 401.522C707.991 401.276 708.336 401.081 708.744 400.937C709.158 400.787 709.629 400.712 710.157 400.712C710.763 400.712 711.309 400.808 711.795 401C712.287 401.192 712.707 401.456 713.055 401.792L712.668 402.431ZM718.996 400.712C719.668 400.712 720.274 400.823 720.814 401.045C721.36 401.261 721.822 401.576 722.2 401.99C722.584 402.398 722.878 402.893 723.082 403.475C723.286 404.051 723.388 404.699 723.388 405.419C723.388 406.139 723.286 406.79 723.082 407.372C722.878 407.954 722.584 408.449 722.2 408.857C721.822 409.265 721.36 409.58 720.814 409.802C720.274 410.018 719.668 410.126 718.996 410.126C718.318 410.126 717.706 410.018 717.16 409.802C716.62 409.58 716.158 409.265 715.774 408.857C715.39 408.449 715.093 407.954 714.883 407.372C714.679 406.79 714.577 406.139 714.577 405.419C714.577 404.699 714.679 404.051 714.883 403.475C715.093 402.893 715.39 402.398 715.774 401.99C716.158 401.576 716.62 401.261 717.16 401.045C717.706 400.823 718.318 400.712 718.996 400.712ZM718.996 408.758C719.86 408.758 720.505 408.467 720.931 407.885C721.357 407.303 721.57 406.484 721.57 405.428C721.57 404.372 721.357 403.553 720.931 402.971C720.505 402.383 719.86 402.089 718.996 402.089C718.12 402.089 717.466 402.383 717.034 402.971C716.608 403.553 716.395 404.372 716.395 405.428C716.395 406.484 716.608 407.303 717.034 407.885C717.466 408.467 718.12 408.758 718.996 408.758ZM727.408 397.076V402.224C727.408 402.494 727.402 402.758 727.39 403.016C727.378 403.274 727.36 403.535 727.336 403.799C727.318 404.057 727.294 404.324 727.264 404.6C727.234 404.876 727.201 405.167 727.165 405.473H725.977C725.941 405.167 725.908 404.876 725.878 404.6C725.848 404.324 725.821 404.057 725.797 403.799C725.779 403.535 725.764 403.274 725.752 403.016C725.74 402.758 725.734 402.494 725.734 402.224V397.076H727.408ZM725.356 408.947C725.356 408.785 725.386 408.632 725.446 408.488C725.506 408.344 725.59 408.218 725.698 408.11C725.806 408.002 725.932 407.918 726.076 407.858C726.22 407.792 726.376 407.759 726.544 407.759C726.706 407.759 726.859 407.792 727.003 407.858C727.147 407.918 727.273 408.002 727.381 408.11C727.489 408.218 727.573 408.344 727.633 408.488C727.699 408.632 727.732 408.785 727.732 408.947C727.732 409.115 727.699 409.271 727.633 409.415C727.573 409.559 727.489 409.685 727.381 409.793C727.273 409.901 727.147 409.985 727.003 410.045C726.859 410.105 726.706 410.135 726.544 410.135C726.376 410.135 726.22 410.105 726.076 410.045C725.932 409.985 725.806 409.901 725.698 409.793C725.59 409.685 725.506 409.559 725.446 409.415C725.386 409.271 725.356 409.115 725.356 408.947Z" fill="#5B6075"/>
<rect x="0.5" y="0.5" width="1159" height="603" rx="1.5" stroke="black" stroke-opacity="0.06"/>
<defs>
<clipPath id="clip0_626_1250">
<rect width="133.679" height="120" fill="white" transform="translate(513.161 194)"/>
</clipPath>
</defs>
</svg>
